<svg width="62" height="62" viewBox="0 0 62 62" fill="none" xmlns="http://www.w3.org/2000/svg">
<path fill-rule="evenodd" clip-rule="evenodd" d="M7.75 7.75V43.9167H36.6667V41.3333H10.3333V10.3333H45.2084V13.0717H47.7917V7.75H7.75ZM47.7917 20.6667C47.7917 22.0934 46.6351 23.25 45.2084 23.25C43.7816 23.25 42.625 22.0934 42.625 20.6667C42.625 19.2399 43.7816 18.0833 45.2084 18.0833C46.6351 18.0833 47.7917 19.2399 47.7917 20.6667ZM50.375 20.6667C50.375 23.5201 48.0618 25.8333 45.2084 25.8333C42.3549 25.8333 40.0417 23.5201 40.0417 20.6667C40.0417 17.8132 42.3549 15.5 45.2084 15.5C48.0618 15.5 50.375 17.8132 50.375 20.6667Z" fill="#012A53"/>
<path fill-rule="evenodd" clip-rule="evenodd" d="M38.8694 28.1962C39.5901 27.5086 40.548 27.125 41.5442 27.125H46.8162C48.7071 27.125 50.4676 27.7685 51.8243 29.0495C53.1296 30.282 53.8082 31.8614 54.086 33.3583C54.5227 35.7115 54.0701 38.2838 52.9584 40.563V51.0208C52.9584 52.701 51.6701 54.1004 49.9955 54.239C48.3212 54.3776 46.8202 53.209 46.5439 51.5517L45.8542 47.4131L45.1644 51.5517C44.8883 53.209 43.3872 54.3776 41.7128 54.239C40.0385 54.1004 38.75 52.701 38.75 51.0208V43.2763C38.7499 43.2702 38.7499 43.2641 38.7499 43.2579V38.8697C38.1654 39.2071 37.498 39.3889 36.8124 39.3889H30.2222C28.0821 39.3889 26.3472 37.654 26.3472 35.5139C26.3472 33.3738 28.0821 31.6389 30.2222 31.6389H35.2606L38.8694 28.1962ZM41.3332 43.2396C41.3334 43.2456 41.3334 43.2517 41.3334 43.2579V51.0208C41.3334 51.3569 41.591 51.6367 41.926 51.6645C42.2608 51.6922 42.561 51.4584 42.6162 51.127L43.9632 43.0456C44.0669 42.4227 44.6058 41.9663 45.2373 41.9663H46.4712C47.1026 41.9663 47.6415 42.4227 47.7453 43.0456L49.0921 51.127C49.1474 51.4584 49.4476 51.6922 49.7825 51.6645C50.1173 51.6367 50.375 51.3569 50.375 51.0208V40.2567C50.375 40.0501 50.4246 39.8464 50.5198 39.6627C51.5173 37.7369 51.8797 35.6277 51.5461 33.8298C51.3434 32.7378 50.8696 31.701 50.0507 30.9278C49.2147 30.1385 48.1065 29.7083 46.8162 29.7083H41.5447C41.2126 29.7083 40.8928 29.8362 40.6525 30.0653L36.6694 33.8652C36.4292 34.0943 36.1099 34.2222 35.7778 34.2222H30.2222C29.5089 34.2222 28.9305 34.8005 28.9305 35.5139C28.9305 36.2272 29.5089 36.8055 30.2222 36.8055H36.8124C37.1445 36.8055 37.4638 36.6777 37.704 36.4485L39.1501 35.069C39.524 34.7122 40.0748 34.6128 40.55 34.8162C41.025 35.0197 41.3332 35.4867 41.3332 36.0037V43.2396Z" fill="#012A53"/>
</svg>
