<svg width="62" height="62" viewBox="0 0 62 62" fill="none" xmlns="http://www.w3.org/2000/svg">
<path d="M14.6387 39.1806C14.6387 38.4672 15.217 37.8889 15.9303 37.8889H34.0137C34.7271 37.8889 35.3054 38.4672 35.3054 39.1806C35.3054 39.894 34.7271 40.4722 34.0137 40.4722H15.9303C15.217 40.4722 14.6387 39.894 14.6387 39.1806Z" fill="#012A53"/>
<path d="M15.9303 43.9167C15.217 43.9167 14.6387 44.495 14.6387 45.2084C14.6387 45.9218 15.217 46.5001 15.9303 46.5001H34.0137C34.7271 46.5001 35.3054 45.9218 35.3054 45.2084C35.3054 44.495 34.7271 43.9167 34.0137 43.9167H15.9303Z" fill="#012A53"/>
<path d="M18.5137 27.125V23.25H21.097V27.125H24.972V29.7083H21.097V33.5833H18.5137V29.7083H14.6387V27.125H18.5137Z" fill="#012A53"/>
<path fill-rule="evenodd" clip-rule="evenodd" d="M19.375 7.75C17.2348 7.75 15.5 9.4849 15.5 11.625H11.625C9.4849 11.625 7.75 13.3598 7.75 15.5V50.375C7.75 52.5152 9.4849 54.25 11.625 54.25H37.4584C39.5985 54.25 41.3334 52.5152 41.3334 50.375V15.5C41.3334 13.3598 39.5985 11.625 37.4584 11.625H33.5834C33.5834 9.4849 31.8485 7.75 29.7084 7.75H19.375ZM29.7084 15.5C30.4217 15.5 31 14.9217 31 14.2083V11.625C31 10.9116 30.4217 10.3333 29.7084 10.3333H19.375C18.6616 10.3333 18.0833 10.9116 18.0833 11.625V14.2083C18.0833 14.9217 18.6616 15.5 19.375 15.5H29.7084ZM15.5 14.2083C15.5 16.3485 17.2348 18.0833 19.375 18.0833H29.7084C31.8485 18.0833 33.5834 16.3485 33.5834 14.2083H37.4584C38.1717 14.2083 38.75 14.7866 38.75 15.5V50.375C38.75 51.0884 38.1717 51.6667 37.4584 51.6667H11.625C10.9116 51.6667 10.3333 51.0884 10.3333 50.375V15.5C10.3333 14.7866 10.9116 14.2083 11.625 14.2083H15.5Z" fill="#012A53"/>
<path fill-rule="evenodd" clip-rule="evenodd" d="M46.5 21.9857C46.5 19.8304 48.2348 18.0833 50.375 18.0833C52.5152 18.0833 54.25 19.8304 54.25 21.9857V48.3962L50.375 54.2499L46.5 48.3962V21.9857ZM50.375 20.6849C49.6616 20.6849 49.0833 21.2673 49.0833 21.9857V24.5874H51.6667V21.9857C51.6667 21.2673 51.0884 20.6849 50.375 20.6849ZM50.375 49.5597L51.6667 47.6084V27.189H49.0833V47.6084L50.375 49.5597Z" fill="#012A53"/>
</svg>
