<svg width="62" height="62" viewBox="0 0 62 62" fill="none" xmlns="http://www.w3.org/2000/svg">
<path d="M36.0316 39.354C30.2328 43.4412 22.7381 45.2083 14.2759 45.2083H10.3333V7.75H7.75V52.9583C7.75 53.6717 8.32831 54.25 9.04167 54.25H54.25V51.6667H10.3333V47.7917H14.2759C23.0672 47.7917 31.1443 45.9593 37.5198 41.4656C43.5045 37.2474 47.8653 30.7716 49.9483 21.5869L51.8147 25.142C52.1463 25.7737 52.9271 26.0169 53.5587 25.6853C54.1904 25.3537 54.4336 24.5729 54.102 23.9413L50.7114 17.483C50.5399 17.1562 50.2368 16.9185 49.8787 16.8296C49.5206 16.7408 49.1416 16.8094 48.8373 17.0181L43.1863 20.8931C42.5979 21.2965 42.4479 22.1004 42.8515 22.6888C43.2549 23.2771 44.0588 23.4271 44.6471 23.0236L47.4018 21.1348C45.4301 29.7224 41.3952 35.5735 36.0316 39.354Z" fill="#012A53"/>
<path d="M34.8752 17.8988C34.8752 17.3769 34.6679 16.8762 34.2987 16.5071C33.9296 16.138 33.4289 15.9306 32.9069 15.9306H27.9863V11.01C27.9863 10.488 27.7789 9.98735 27.4099 9.61823C27.0407 9.24911 26.54 9.04175 26.0181 9.04175H23.0656C22.5436 9.04175 22.043 9.24911 21.6738 9.61823C21.3048 9.98735 21.0973 10.488 21.0973 11.01V15.9306H16.1767C15.6548 15.9306 15.1541 16.138 14.785 16.5071C14.4158 16.8762 14.2085 17.3769 14.2085 17.8988V20.8513C14.2085 21.3733 14.4158 21.8739 14.785 22.2431C15.1541 22.6121 15.6548 22.8196 16.1767 22.8196H21.0973V27.7402C21.0973 28.2621 21.3048 28.7628 21.6738 29.1319C22.043 29.5011 22.5436 29.7084 23.0656 29.7084H26.0181C26.54 29.7084 27.0407 29.5011 27.4099 29.1319C27.7789 28.7628 27.9863 28.2621 27.9863 27.7402V22.8196H32.9069C33.4289 22.8196 33.9296 22.6121 34.2987 22.2431C34.6679 21.8739 34.8752 21.3733 34.8752 20.8513V17.8988Z" fill="#012A53"/>
</svg>
