<svg width="36" height="50" viewBox="0 0 36 50" fill="none" xmlns="http://www.w3.org/2000/svg">
<path fill-rule="evenodd" clip-rule="evenodd" d="M8.30769 4.16667C8.30769 1.86549 10.1674 0 12.4615 0H23.5385C25.8326 0 27.6923 1.86549 27.6923 4.16667H31.8462C34.1403 4.16667 36 6.03208 36 8.33333V45.8333C36 48.1346 34.1403 50 31.8462 50H4.15385C1.85975 50 0 48.1346 0 45.8333V8.33333C0 6.03208 1.85975 4.16667 4.15385 4.16667H8.30769ZM24.9231 6.94444C24.9231 7.71153 24.3032 8.33333 23.5385 8.33333H12.4615C11.6968 8.33333 11.0769 7.71153 11.0769 6.94444V4.16667C11.0769 3.39961 11.6968 2.77778 12.4615 2.77778H23.5385C24.3032 2.77778 24.9231 3.39961 24.9231 4.16667V6.94444ZM12.4615 11.1111C10.1674 11.1111 8.30769 9.24569 8.30769 6.94444H4.15385C3.38915 6.94444 2.76923 7.56625 2.76923 8.33333V45.8333C2.76923 46.6004 3.38915 47.2222 4.15385 47.2222H31.8462C32.6109 47.2222 33.2308 46.6004 33.2308 45.8333V8.33333C33.2308 7.56625 32.6109 6.94444 31.8462 6.94444H27.6923C27.6923 9.24569 25.8326 11.1111 23.5385 11.1111H12.4615ZM15.5 18V25.5H8V30.5H15.5V38H20.5V30.5H28V25.5H20.5V18H15.5Z" fill="#012A53"/>
</svg>
