<svg width="62" height="62" viewBox="0 0 62 62" fill="none" xmlns="http://www.w3.org/2000/svg">
<path d="M20.667 11.625V15.5H16.792V18.0833H20.667V21.9583H23.2503V18.0833H27.1253V15.5H23.2503V11.625H20.667Z" fill="#012A53"/>
<path fill-rule="evenodd" clip-rule="evenodd" d="M16.7919 7.75C14.6518 7.75 12.9169 9.4849 12.9169 11.625V12.9167H7.75024V37.4583H36.1669V12.9167H31.0003V11.625C31.0003 9.4849 29.2654 7.75 27.1253 7.75H16.7919ZM27.1253 25.8333C29.2654 25.8333 31.0003 24.0985 31.0003 21.9583V20.6667H33.5836V34.875H27.1253V27.125H16.7919V34.875H10.3336V20.6667H12.9169V21.9583C12.9169 24.0985 14.6518 25.8333 16.7919 25.8333H27.1253ZM15.5003 11.625C15.5003 10.9116 16.0785 10.3333 16.7919 10.3333H27.1253C27.8386 10.3333 28.4169 10.9116 28.4169 11.625V21.9583C28.4169 22.6717 27.8386 23.25 27.1253 23.25H16.7919C16.0785 23.25 15.5003 22.6717 15.5003 21.9583V11.625ZM10.3336 15.5H12.9169V18.0833H10.3336V15.5ZM33.5836 18.0833H31.0003V15.5H33.5836V18.0833ZM24.5419 29.7083V34.875H19.3753V29.7083H24.5419Z" fill="#012A53"/>
<path fill-rule="evenodd" clip-rule="evenodd" d="M38.7502 36.1667C38.7502 33.3123 41.0626 31 43.9169 31C46.7712 31 49.0836 33.3123 49.0836 36.1667C49.0836 39.021 46.7712 41.3333 43.9169 41.3333C41.0626 41.3333 38.7502 39.021 38.7502 36.1667ZM43.9169 33.5833C42.4894 33.5833 41.3336 34.7391 41.3336 36.1667C41.3336 37.5942 42.4894 38.75 43.9169 38.75C45.3445 38.75 46.5003 37.5942 46.5003 36.1667C46.5003 34.7391 45.3445 33.5833 43.9169 33.5833Z" fill="#012A53"/>
<path fill-rule="evenodd" clip-rule="evenodd" d="M43.917 42.6249C40.4682 42.6249 33.5836 44.5131 33.5836 48.2613V51.6666H21.9586C21.0175 51.6666 20.4065 51.3265 20.0177 50.8891C19.6079 50.4282 19.3753 49.7768 19.3753 49.0833V44.4516L23.6286 48.7049L25.4553 46.8783L18.0836 39.5066L10.7119 46.8783L12.5386 48.7049L16.7919 44.4516V49.0833C16.7919 50.3273 17.2051 51.6134 18.087 52.6055C18.9898 53.6213 20.3164 54.2499 21.9586 54.2499H54.2503V48.2613C54.2503 44.5131 47.3657 42.6249 43.917 42.6249ZM36.5462 47.6198C36.1806 47.9878 36.167 48.1897 36.167 48.2613V51.6666H51.667V48.2613C51.667 48.1897 51.6533 47.9878 51.2877 47.6198C50.8987 47.228 50.2476 46.8002 49.3425 46.4047C47.5181 45.6075 45.2872 45.2083 43.917 45.2083C42.5468 45.2083 40.3158 45.6075 38.4914 46.4047C37.5864 46.8002 36.9352 47.228 36.5462 47.6198Z" fill="#012A53"/>
</svg>
