<svg width="62" height="62" viewBox="0 0 62 62" fill="none" xmlns="http://www.w3.org/2000/svg">
<path fill-rule="evenodd" clip-rule="evenodd" d="M27.1253 14.2083V14.4287C26.7213 14.286 26.2865 14.2083 25.8337 14.2083C23.6935 14.2083 21.9587 15.9431 21.9587 18.0833V19.5954C21.5546 19.4527 21.1199 19.3749 20.667 19.3749C18.5268 19.3749 16.792 21.1098 16.792 23.2499V38.1366C16.792 45.6091 22.8495 51.6666 30.322 51.6666C35.0204 51.6666 39.3824 49.2291 41.8448 45.2276L49.2532 33.189C50.0936 31.8234 50.008 30.0814 49.0377 28.8047C47.501 26.7828 44.4689 26.7561 42.897 28.7507L40.042 32.3731V18.0833C40.042 15.9431 38.3072 14.2083 36.167 14.2083C35.7142 14.2083 35.2794 14.286 34.8753 14.4287V14.2083C34.8753 12.0682 33.1405 10.3333 31.0003 10.3333C28.8602 10.3333 27.1253 12.0682 27.1253 14.2083ZM32.292 14.2083C32.292 13.4949 31.7137 12.9166 31.0003 12.9166C30.287 12.9166 29.7087 13.4949 29.7087 14.2083V29.7083H27.1253V18.0833C27.1253 17.3699 26.5471 16.7916 25.8337 16.7916C25.1203 16.7916 24.542 17.3699 24.542 18.0833V32.2916H21.9587V23.2499C21.9587 22.5365 21.3804 21.9583 20.667 21.9583C19.9536 21.9583 19.3753 22.5365 19.3753 23.2499V38.1366C19.3753 44.1823 24.2763 49.0833 30.322 49.0833C34.1232 49.0833 37.6524 47.1111 39.6447 43.8737L47.0531 31.8351C47.3344 31.3781 47.3057 30.7952 46.981 30.3679C46.4666 29.6912 45.452 29.6823 44.9259 30.3498L42.071 33.9722C40.5535 35.8974 37.4587 34.8244 37.4587 32.3731V18.0833C37.4587 17.3699 36.8804 16.7916 36.167 16.7916C35.4536 16.7916 34.8753 17.3699 34.8753 18.0833V29.7083H32.292V14.2083Z" fill="#012A53"/>
<path fill-rule="evenodd" clip-rule="evenodd" d="M31.0003 5.16675C45.2677 5.16675 56.8337 16.7327 56.8337 31.0001C56.8337 45.2674 45.2677 56.8334 31.0003 56.8334C16.733 56.8334 5.16699 45.2674 5.16699 31.0001C5.16699 16.7327 16.733 5.16675 31.0003 5.16675ZM54.2504 31.0001C54.2504 18.1595 43.8409 7.75008 31.0003 7.75008C18.1597 7.75008 7.75033 18.1595 7.75033 31.0001C7.75033 43.8407 18.1597 54.2501 31.0003 54.2501C43.8409 54.2501 54.2504 43.8407 54.2504 31.0001Z" fill="#012A53"/>
</svg>
