<svg width="48" height="47" viewBox="0 0 48 47" fill="none" xmlns="http://www.w3.org/2000/svg">
<path d="M24 2.9375C22.8065 2.9375 21.6619 3.40173 20.818 4.22806C19.9741 5.05439 19.5 6.17514 19.5 7.34375C19.5 8.51236 19.9741 9.63311 20.818 10.4594C21.6619 11.2858 22.8065 11.75 24 11.75C25.1935 11.75 26.3381 11.2858 27.182 10.4594C28.0259 9.63311 28.5 8.51236 28.5 7.34375C28.5 6.17514 28.0259 5.05439 27.182 4.22806C26.3381 3.40173 25.1935 2.9375 24 2.9375ZM16.5 7.34375C16.5 5.39607 17.2902 3.52815 18.6967 2.15093C20.1032 0.773714 22.0109 0 24 0C25.9891 0 27.8968 0.773714 29.3033 2.15093C30.7098 3.52815 31.5 5.39607 31.5 7.34375C31.5 9.29143 30.7098 11.1593 29.3033 12.5366C27.8968 13.9138 25.9891 14.6875 24 14.6875C22.0109 14.6875 20.1032 13.9138 18.6967 12.5366C17.2902 11.1593 16.5 9.29143 16.5 7.34375ZM40.5 5.875C39.7043 5.875 38.9413 6.18449 38.3787 6.73537C37.8161 7.28626 37.5 8.03343 37.5 8.8125C37.5 9.59157 37.8161 10.3387 38.3787 10.8896C38.9413 11.4405 39.7043 11.75 40.5 11.75C41.2957 11.75 42.0587 11.4405 42.6213 10.8896C43.1839 10.3387 43.5 9.59157 43.5 8.8125C43.5 8.03343 43.1839 7.28626 42.6213 6.73537C42.0587 6.18449 41.2957 5.875 40.5 5.875ZM34.5 8.8125C34.5 7.25435 35.1321 5.76002 36.2574 4.65825C37.3826 3.55647 38.9087 2.9375 40.5 2.9375C42.0913 2.9375 43.6174 3.55647 44.7426 4.65825C45.8679 5.76002 46.5 7.25435 46.5 8.8125C46.5 10.3706 45.8679 11.865 44.7426 12.9668C43.6174 14.0685 42.0913 14.6875 40.5 14.6875C38.9087 14.6875 37.3826 14.0685 36.2574 12.9668C35.1321 11.865 34.5 10.3706 34.5 8.8125ZM4.5 8.8125C4.5 8.03343 4.81607 7.28626 5.37868 6.73537C5.94129 6.18449 6.70435 5.875 7.5 5.875C8.29565 5.875 9.05871 6.18449 9.62132 6.73537C10.1839 7.28626 10.5 8.03343 10.5 8.8125C10.5 9.59157 10.1839 10.3387 9.62132 10.8896C9.05871 11.4405 8.29565 11.75 7.5 11.75C6.70435 11.75 5.94129 11.4405 5.37868 10.8896C4.81607 10.3387 4.5 9.59157 4.5 8.8125ZM7.5 2.9375C5.9087 2.9375 4.38258 3.55647 3.25736 4.65825C2.13214 5.76002 1.5 7.25435 1.5 8.8125C1.5 10.3706 2.13214 11.865 3.25736 12.9668C4.38258 14.0685 5.9087 14.6875 7.5 14.6875C9.0913 14.6875 10.6174 14.0685 11.7426 12.9668C12.8679 11.865 13.5 10.3706 13.5 8.8125C13.5 7.25435 12.8679 5.76002 11.7426 4.65825C10.6174 3.55647 9.0913 2.9375 7.5 2.9375ZM9.3 38.1816C8.4877 38.2214 7.67561 38.0991 6.91307 37.8221C6.15054 37.5451 5.45348 37.1192 4.86424 36.5703C4.27501 36.0214 3.8059 35.3609 3.48542 34.6289C3.16495 33.897 2.9998 33.1089 3 32.3125V21.2969C3 21.1021 3.07902 20.9153 3.21967 20.7776C3.36032 20.6399 3.55109 20.5625 3.75 20.5625H9.042C9.162 19.4844 9.552 18.4827 10.137 17.625H3.75C1.68 17.625 5.35142e-08 19.27 5.35142e-08 21.2969V32.3125C-0.000139998 33.5701 0.274616 34.8132 0.805805 35.9582C1.33699 37.1032 2.11231 38.1236 3.07966 38.9509C4.04702 39.7781 5.18399 40.3931 6.4142 40.7544C7.6444 41.1157 8.93934 41.215 10.212 41.0457C9.80822 40.1242 9.50261 39.1645 9.3 38.1816ZM37.788 41.0457C39.0607 41.215 40.3556 41.1157 41.5858 40.7544C42.816 40.3931 43.953 39.7781 44.9203 38.9509C45.8877 38.1236 46.663 37.1032 47.1942 35.9582C47.7254 34.8132 48.0001 33.5701 48 32.3125V21.2969C48 19.27 46.32 17.625 44.25 17.625H37.863C38.451 18.4827 38.838 19.4844 38.958 20.5625H44.25C44.4489 20.5625 44.6397 20.6399 44.7803 20.7776C44.921 20.9153 45 21.1021 45 21.2969V32.3125C45.0002 33.1089 44.8351 33.897 44.5146 34.6289C44.1941 35.3609 43.725 36.0214 43.1358 36.5703C42.5465 37.1192 41.8495 37.5451 41.0869 37.8221C40.3244 38.0991 39.5123 38.2214 38.7 38.1816C38.4973 39.1645 38.1917 40.1242 37.788 41.0457ZM15.75 17.625C13.68 17.625 12 19.27 12 21.2969V35.25C12 38.3663 13.2643 41.3549 15.5147 43.5585C17.7652 45.7621 20.8174 47 24 47C27.1826 47 30.2348 45.7621 32.4853 43.5585C34.7357 41.3549 36 38.3663 36 35.25V21.2969C36 19.27 34.32 17.625 32.25 17.625H15.75ZM15 21.2969C15 21.1021 15.079 20.9153 15.2197 20.7776C15.3603 20.6399 15.5511 20.5625 15.75 20.5625H32.25C32.4489 20.5625 32.6397 20.6399 32.7803 20.7776C32.921 20.9153 33 21.1021 33 21.2969V35.25C33 37.5872 32.0518 39.8287 30.364 41.4814C28.6761 43.134 26.3869 44.0625 24 44.0625C21.6131 44.0625 19.3239 43.134 17.636 41.4814C15.9482 39.8287 15 37.5872 15 35.25V21.2969Z" fill="#012A53"/>
</svg>
