<svg width="25" height="24" viewBox="0 0 25 24" fill="none" xmlns="http://www.w3.org/2000/svg">
<path d="M21.9531 0C23.6406 0 24.9531 1.35938 24.9531 3V16.4062C24.9531 18 23.5938 19.3594 21.9531 19.3594H15.2031L9.34375 23.7656C8.96875 24 8.45312 23.7656 8.45312 23.2969V19.4062H3.95312C2.26562 19.4062 0.953125 18.0938 0.953125 16.4531V3C0.953125 1.35938 2.26562 0 3.95312 0H21.9531ZM17.2656 7.875C17.6875 7.40625 17.6406 6.70312 17.1719 6.23438C16.7031 5.85938 15.9531 5.90625 15.5781 6.375L11.875 10.6875L10.4688 9.32812C10.0469 8.85938 9.29688 8.85938 8.875 9.32812C8.45312 9.75 8.45312 10.4531 8.875 10.9219L11.125 13.1719C11.3594 13.3594 11.6406 13.5 11.9219 13.5H11.9688C12.2969 13.5 12.5781 13.3594 12.7656 13.125L17.2656 7.875Z" fill="#A4D65E"/>
</svg>
