<svg width="21" height="21" viewBox="0 0 21 21" fill="none" xmlns="http://www.w3.org/2000/svg">
<path d="M15.5 8.625C16.1641 8.625 16.75 9.21094 16.75 9.875V11.125C16.75 11.8281 16.1641 12.375 15.5 12.375H5.5C4.79688 12.375 4.25 11.8281 4.25 11.125V9.875C4.25 9.21094 4.79688 8.625 5.5 8.625H15.5ZM20.5 10.5C20.5 16.0469 16.0078 20.5 10.5 20.5C4.95312 20.5 0.5 16.0469 0.5 10.5C0.5 4.99219 4.95312 0.5 10.5 0.5C16.0078 0.5 20.5 4.99219 20.5 10.5ZM10.5 2.375C6.00781 2.375 2.375 6.04688 2.375 10.5C2.375 14.9922 6.00781 18.625 10.5 18.625C14.9531 18.625 18.625 14.9922 18.625 10.5C18.625 6.04688 14.9531 2.375 10.5 2.375Z" fill="#012A53"/>
</svg>
