<svg width="27" height="27" viewBox="0 0 27 27" fill="none" xmlns="http://www.w3.org/2000/svg">
<path d="M13.5 0C6.0345 0 0 6.0345 0 13.5C0 20.9655 6.0345 27 13.5 27C20.9655 27 27 20.9655 27 13.5C27 6.0345 20.9655 0 13.5 0ZM13.5 24.3C7.5465 24.3 2.7 19.4535 2.7 13.5C2.7 7.5465 7.5465 2.7 13.5 2.7C19.4535 2.7 24.3 7.5465 24.3 13.5C24.3 19.4535 19.4535 24.3 13.5 24.3ZM18.3465 6.75L13.5 11.5965L8.6535 6.75L6.75 8.6535L11.5965 13.5L6.75 18.3465L8.6535 20.25L13.5 15.4035L18.3465 20.25L20.25 18.3465L15.4035 13.5L20.25 8.6535L18.3465 6.75Z" fill="white"/>
</svg>
