<svg width="199" height="171" viewBox="0 0 199 171" fill="none" xmlns="http://www.w3.org/2000/svg">
<g clip-path="url(#clip0_462_6176)">
<path opacity="0.1" d="M200.371 -28.75C214.012 -28.75 224.621 -17.7617 224.621 -4.5V103.867C224.621 116.75 213.633 127.738 200.371 127.738H145.809L98.4453 163.355C95.4141 165.25 91.2461 163.355 91.2461 159.566V128.117H54.8711C41.2305 128.117 30.6211 117.508 30.6211 104.246V-4.5C30.6211 -17.7617 41.2305 -28.75 54.8711 -28.75H200.371ZM212.875 104.625V-4.5C212.875 -10.9414 207.191 -16.625 200.75 -16.625H55.25C48.4297 -16.625 43.125 -10.9414 43.125 -4.5V104.625C43.125 111.445 48.4297 116.75 55.25 116.75H97.6875C100.719 116.75 103.75 119.781 103.75 122.812V145.547L138.609 119.402C140.883 117.887 143.156 116.75 145.809 116.75H200.75C207.191 116.75 212.875 111.445 212.875 104.625ZM158.312 37.9375C161.344 37.9375 164.375 40.9688 164.375 44V56.125C164.375 59.5352 161.344 62.1875 158.312 62.1875H140.125V80.375C140.125 83.7852 137.094 86.4375 134.062 86.4375H121.938C118.527 86.4375 115.875 83.7852 115.875 80.375V62.1875H97.6875C94.2773 62.1875 91.625 59.5352 91.625 56.125V44C91.625 40.9688 94.2773 37.9375 97.6875 37.9375H115.875V19.75C115.875 16.7188 118.527 13.6875 121.938 13.6875H134.062C137.094 13.6875 140.125 16.7188 140.125 19.75V37.9375H158.312Z" fill="white"/>
</g>
<defs>
<clipPath id="clip0_462_6176">
<rect width="199" height="171" fill="white"/>
</clipPath>
</defs>
</svg>
