<svg width="142" height="142" viewBox="0 0 142 142" fill="none" xmlns="http://www.w3.org/2000/svg">
<path d="M70.8333 0.166687C31.7333 0.166687 0 31.9 0 71C0 110.1 31.7333 141.833 70.8333 141.833C109.933 141.833 141.667 110.1 141.667 71C141.667 31.9 109.933 0.166687 70.8333 0.166687ZM70.8333 127.667C39.5958 127.667 14.1667 102.238 14.1667 71C14.1667 39.7625 39.5958 14.3334 70.8333 14.3334C102.071 14.3334 127.5 39.7625 127.5 71C127.5 102.238 102.071 127.667 70.8333 127.667ZM53.125 102.875L102.708 71L53.125 39.125V102.875Z" fill="white"/>
</svg>
