<svg width="147" height="114" viewBox="0 0 147 114" fill="none" xmlns="http://www.w3.org/2000/svg">
<path d="M94.5905 -37.8046C92.7012 -39.3884 89.8356 -39.3884 87.9148 -37.8046L2.26401 33.9142C0.18572 35.6474 -0.0347044 38.6954 1.82316 40.6677C3.68103 42.6399 6.86144 42.8491 8.93973 41.086L20.7167 31.2247V90.0939C20.7167 103.302 31.9899 114 45.9081 114H136.597C150.515 114 161.789 103.302 161.789 90.0939V31.2247L173.566 41.086C175.644 42.8192 178.824 42.6399 180.682 40.6677C182.54 38.6954 182.32 35.6772 180.241 33.9142L94.5905 -37.8046ZM30.7933 90.0939V22.7679L91.2527 -27.8536L151.712 22.7679V90.0939C151.712 98.0128 144.942 104.438 136.597 104.438H45.9081C37.5635 104.438 30.7933 98.0128 30.7933 90.0939ZM86.2144 13.5938C80.6408 13.5938 76.1378 17.8671 76.1378 23.1563V32.7188H66.0612C60.4876 32.7188 55.9847 36.9921 55.9847 42.2813V51.8438C55.9847 57.1331 60.4876 61.4063 66.0612 61.4063H76.1378V70.9688C76.1378 76.2581 80.6408 80.5313 86.2144 80.5313H96.2909C101.865 80.5313 106.368 76.2581 106.368 70.9688V61.4063H116.444C122.018 61.4063 126.521 57.1331 126.521 51.8438V42.2813C126.521 36.9921 122.018 32.7188 116.444 32.7188H106.368V23.1563C106.368 17.8671 101.865 13.5938 96.2909 13.5938H86.2144ZM86.2144 23.1563H96.2909V37.5001C96.2909 40.1298 98.5582 42.2813 101.329 42.2813H116.444V51.8438H101.329C98.5582 51.8438 96.2909 53.9954 96.2909 56.6251V70.9688H86.2144V56.6251C86.2144 53.9954 83.9471 51.8438 81.1761 51.8438H66.0612V42.2813H81.1761C82.4986 42.2813 83.7897 41.7733 84.7344 40.8769C85.6791 39.9804 86.2144 38.7552 86.2144 37.5001V23.1563Z" fill="white" fill-opacity="0.1"/>
</svg>
