<svg width="136" height="124" viewBox="0 0 136 124" fill="none" xmlns="http://www.w3.org/2000/svg">
<path d="M32.3944 -15.6124C33.7383 -12.1249 31.9369 -8.24364 28.3912 -6.92176L16.0102 -2.36551C15.1238 -2.02801 14.5233 -1.18427 14.5233 -0.25614V36.2501C14.5233 52.3939 27.848 65.5001 44.2607 65.5001H46.5482H48.8357C65.2485 65.5001 78.5732 52.3939 78.5732 36.2501V-0.25614C78.5732 -1.18427 77.9727 -2.02801 77.0863 -2.36551L64.7338 -6.92176C61.1882 -8.24364 59.3868 -12.1249 60.7307 -15.6124C62.0746 -19.0999 66.0205 -20.8718 69.5662 -19.5499L81.9186 -14.9936C88.1521 -12.7155 92.2981 -6.83739 92.2981 -0.25614V36.2501C92.2981 58.3282 75.2849 76.497 53.4679 78.747C54.5259 96.4657 69.4518 110.5 87.7231 110.5C106.681 110.5 122.036 95.397 122.036 76.7501V55.4595C112.743 52.5907 106.023 44.0689 106.023 34.0001C106.023 21.5689 116.26 11.5001 128.898 11.5001C141.536 11.5001 151.773 21.5689 151.773 34.0001C151.773 44.0689 145.053 52.5907 135.761 55.4595V76.7501C135.761 102.85 114.258 124 87.7231 124C61.8745 124 40.8009 103.919 39.7429 78.7751C17.8688 76.5532 0.79834 58.3564 0.79834 36.2501V-0.25614C0.79834 -6.80927 4.94443 -12.6874 11.1778 -14.9936L23.5589 -19.578C27.1045 -20.8999 31.0505 -19.128 32.3944 -15.6405V-15.6124ZM128.898 25.0001C126.471 25.0001 124.144 25.9483 122.428 27.6362C120.712 29.324 119.748 31.6132 119.748 34.0001C119.748 36.3871 120.712 38.6762 122.428 40.3641C124.144 42.0519 126.471 43.0001 128.898 43.0001C131.325 43.0001 133.652 42.0519 135.368 40.3641C137.084 38.6762 138.048 36.3871 138.048 34.0001C138.048 31.6132 137.084 29.324 135.368 27.6362C133.652 25.9483 131.325 25.0001 128.898 25.0001Z" fill="white" fill-opacity="0.1"/>
</svg>
