<svg width="212" height="205" viewBox="0 0 212 205" fill="none" xmlns="http://www.w3.org/2000/svg">
<path d="M116.438 169.688H133.625V153.438C146.333 151.979 156.229 148.073 163.312 141.719C170.396 135.365 173.938 126.875 173.938 116.25C173.938 105.625 170.917 96.9792 164.875 90.3125C158.833 83.6458 148.625 77.2917 134.25 71.25C122.167 66.25 113.417 61.7708 108 57.8125C102.583 53.8542 99.875 48.5417 99.875 41.875C99.875 35.4167 102.219 30.3125 106.906 26.5625C111.594 22.8125 118 20.9375 126.125 20.9375C132.375 20.9375 137.792 22.3958 142.375 25.3125C146.958 28.2292 150.812 32.6042 153.938 38.4375L168.938 31.25C165.396 23.9583 160.708 18.2292 154.875 14.0625C149.042 9.89583 142.167 7.39583 134.25 6.5625V-9.375H117.062V6.5625C106.438 8.02083 98.0521 11.9271 91.9062 18.2812C85.7604 24.6354 82.6875 32.5 82.6875 41.875C82.6875 52.0833 85.8125 60.2083 92.0625 66.25C98.3125 72.2917 107.688 77.9167 120.188 83.125C134.146 88.9583 143.729 94.2188 148.938 98.9062C154.146 103.594 156.75 109.375 156.75 116.25C156.75 122.917 153.99 128.281 148.469 132.344C142.948 136.406 136.021 138.438 127.688 138.438C119.562 138.438 112.323 136.146 105.969 131.562C99.6146 126.979 95.1875 120.729 92.6875 112.812L76.75 118.125C81.125 127.708 86.4896 135.26 92.8438 140.781C99.1979 146.302 107.062 150.312 116.438 152.812V169.688ZM125.5 205C108.417 205 92.2708 201.719 77.0625 195.156C61.8542 188.594 48.5729 179.635 37.2188 168.281C25.8646 156.927 16.9062 143.646 10.3438 128.438C3.78125 113.229 0.5 97.0833 0.5 80C0.5 62.7083 3.78125 46.4583 10.3438 31.25C16.9062 16.0417 25.8646 2.8125 37.2188 -8.4375C48.5729 -19.6875 61.8542 -28.5938 77.0625 -35.1562C92.2708 -41.7188 108.417 -45 125.5 -45C142.792 -45 159.042 -41.7188 174.25 -35.1562C189.458 -28.5938 202.688 -19.6875 213.938 -8.4375C225.188 2.8125 234.094 16.0417 240.656 31.25C247.219 46.4583 250.5 62.7083 250.5 80C250.5 97.0833 247.219 113.229 240.656 128.438C234.094 143.646 225.188 156.927 213.938 168.281C202.688 179.635 189.458 188.594 174.25 195.156C159.042 201.719 142.792 205 125.5 205ZM125.5 186.25C155.083 186.25 180.188 175.885 200.812 155.156C221.438 134.427 231.75 109.375 231.75 80C231.75 50.4167 221.438 25.3125 200.812 4.6875C180.188 -15.9375 155.083 -26.25 125.5 -26.25C96.125 -26.25 71.0729 -15.9375 50.3438 4.6875C29.6146 25.3125 19.25 50.4167 19.25 80C19.25 109.375 29.6146 134.427 50.3438 155.156C71.0729 175.885 96.125 186.25 125.5 186.25Z" fill="white" fill-opacity="0.1"/>
</svg>
