<svg width="210" height="203" viewBox="0 0 210 203" fill="none" xmlns="http://www.w3.org/2000/svg">
<path d="M213.657 -41.5C230.813 -41.5 244.157 -27.6797 244.157 -11V125.297C244.157 141.5 230.336 155.32 213.657 155.32H145.032L85.4614 200.117C81.6489 202.5 76.4067 200.117 76.4067 195.352V155.797H30.6567C13.5005 155.797 0.156738 142.453 0.156738 125.773V-11C0.156738 -27.6797 13.5005 -41.5 30.6567 -41.5H213.657ZM229.383 126.25V-11C229.383 -19.1016 222.235 -26.25 214.133 -26.25H31.1333C22.5552 -26.25 15.8833 -19.1016 15.8833 -11V126.25C15.8833 134.828 22.5552 141.5 31.1333 141.5H84.5083C88.3208 141.5 92.1333 145.312 92.1333 149.125V177.719L135.977 144.836C138.836 142.93 141.696 141.5 145.032 141.5H214.133C222.235 141.5 229.383 134.828 229.383 126.25ZM160.758 42.375C164.571 42.375 168.383 46.1875 168.383 50V65.25C168.383 69.5391 164.571 72.875 160.758 72.875H137.883V95.75C137.883 100.039 134.071 103.375 130.258 103.375H115.008C110.719 103.375 107.383 100.039 107.383 95.75V72.875H84.5083C80.2192 72.875 76.8833 69.5391 76.8833 65.25V50C76.8833 46.1875 80.2192 42.375 84.5083 42.375H107.383V19.5C107.383 15.6875 110.719 11.875 115.008 11.875H130.258C134.071 11.875 137.883 15.6875 137.883 19.5V42.375H160.758Z" fill="white" fill-opacity="0.1"/>
</svg>
