<svg width="406" height="396" viewBox="0 0 406 396" fill="none" xmlns="http://www.w3.org/2000/svg">
<path fill-rule="evenodd" clip-rule="evenodd" d="M214.351 15.3717C254.158 19.6499 297.246 12.3066 329.744 35.6974C362.303 59.1314 373.397 100.697 385.881 138.829C398.397 177.056 413.572 217.05 401.703 255.482C389.759 294.159 355.192 319.643 322.622 343.665C289.825 367.855 254.872 389.375 214.351 393.666C170.588 398.3 119.991 398.777 88.0392 368.505C56.6164 338.734 72.5795 286.166 57.8982 245.439C42.4257 202.516 -3.87241 170.435 0.259829 124.995C4.6113 77.1439 36.663 30.6859 79.4181 8.79353C120.509 -12.2466 168.454 10.4389 214.351 15.3717Z" fill="url(#paint0_linear_636_2284)"/>
<defs>
<linearGradient id="paint0_linear_636_2284" x1="203" y1="0" x2="203" y2="396" gradientUnits="userSpaceOnUse">
<stop stop-color="#004C97"/>
<stop offset="1" stop-color="#004C97" stop-opacity="0.08"/>
</linearGradient>
</defs>
</svg>
