<svg width="387" height="377" viewBox="0 0 387 377" fill="none" xmlns="http://www.w3.org/2000/svg">
<path fill-rule="evenodd" clip-rule="evenodd" d="M204.32 14.6341C242.264 18.7071 283.335 11.7162 314.313 33.9846C345.348 56.2943 355.922 95.8656 367.823 132.168C379.753 168.561 394.218 206.636 382.904 243.224C371.519 280.045 338.57 304.307 307.524 327.176C276.262 350.205 242.945 370.693 204.32 374.778C162.605 379.189 114.376 379.644 83.9191 350.824C53.9669 322.482 69.1829 272.436 55.1887 233.663C40.4403 192.8 -3.69119 162.258 0.24767 118.998C4.3955 73.4425 34.9473 29.2136 75.7015 8.37162C114.869 -11.6591 160.571 9.93807 204.32 14.6341Z" fill="url(#paint0_linear_509_11412)"/>
<defs>
<linearGradient id="paint0_linear_509_11412" x1="193.5" y1="0" x2="193.5" y2="377" gradientUnits="userSpaceOnUse">
<stop stop-color="#00AFD7"/>
<stop offset="1" stop-color="#00AFD7" stop-opacity="0"/>
</linearGradient>
</defs>
</svg>
