<svg width="352" height="342" viewBox="0 0 352 342" fill="none" xmlns="http://www.w3.org/2000/svg">
<path fill-rule="evenodd" clip-rule="evenodd" d="M185.785 14.1979C220.102 17.8711 257.246 11.5663 285.262 31.6493C313.331 51.7694 322.894 87.457 333.656 120.197C344.446 153.018 357.528 187.356 347.296 220.354C336.999 253.561 307.2 275.441 279.123 296.066C250.849 316.835 220.717 335.312 185.785 338.996C148.059 342.974 104.441 343.384 76.8958 317.393C49.8072 291.832 63.5685 246.698 50.9122 211.73C37.5739 174.878 -2.33828 147.333 1.22399 108.319C4.97526 67.2346 32.606 27.3465 69.4639 8.55C104.887 -9.5148 146.219 9.96272 185.785 14.1979Z" stroke="#012A53" stroke-opacity="0.1" stroke-width="2"/>
</svg>
