<svg width="212" height="93" viewBox="0 0 212 93" fill="none" xmlns="http://www.w3.org/2000/svg">
<path d="M179.088 58.6715C174.666 69.6051 169.114 78.7932 155.5 79.9352C159.662 81.3627 165.083 81.8624 169.799 80.5062C169.799 80.5127 169.799 80.5192 169.799 80.5257C182.761 76.548 189.506 63.1293 193.994 53.7984C189.878 53.4999 185.736 52.4877 182.03 50.9109C181.052 53.5583 180.1 56.1603 179.088 58.665" fill="white"/>
<path d="M206.767 46.4337C183.074 48.3674 158.808 17.9869 173.485 0C173.361 0.0778653 173.237 0.162219 173.113 0.240085C173.192 0.175197 173.27 0.0973317 173.348 0.0324439C152.017 10.2133 164.966 51.5469 194.933 51.8389C201.111 52.2022 207.993 50.5151 211.411 46.1871C209.832 46.3493 208.28 46.4337 206.767 46.4337Z" fill="white"/>
<path d="M0.54795 60.6181C0.221789 60.6181 0 60.4364 0 60.0731V58.9829C0 58.691 0.143511 58.4379 0.508811 58.3665L2.26356 58.0421C2.62886 57.9707 2.9224 57.6073 2.9224 56.8092V39.9124C2.9224 39.1143 2.62886 38.7509 2.26356 38.6796L0.508811 38.3551C0.143511 38.2837 0 38.0307 0 37.7387V36.6486C0 36.2852 0.215266 36.1035 0.54795 36.1035H12.4202C18.9238 36.1035 21.9898 38.6147 21.9898 43.1179C21.9898 48.2051 17.3844 51.4754 9.93485 51.2548C9.71307 51.2548 9.64131 50.8914 9.64131 50.5994L9.7522 48.7437C9.78482 48.4192 10.0066 48.3089 10.3002 48.3089C13.6596 48.3089 16.0732 47.3615 16.0732 43.5461C16.0732 40.4575 14.064 39.0429 11.0308 39.0429H9.24339C9.0216 39.0429 8.7672 39.2636 8.7672 39.5166V56.8157C8.7672 57.6138 9.06074 58.0161 9.42604 58.0486L11.9114 58.373C12.2767 58.4119 12.4267 58.6974 12.4267 58.9894V60.0795C12.4267 60.4429 12.2049 60.6246 11.8788 60.6246H0.54795V60.6181Z" fill="white"/>
<path d="M24.5151 60.6182C24.1889 60.6182 23.9998 60.4365 23.9998 60.1121V59.1322C23.9998 58.8792 24.1498 58.6586 24.4759 58.5872L25.9371 58.2952C26.2633 58.2238 26.5569 57.8994 26.5569 57.1662V45.681C26.5569 45.1749 26.3742 44.5195 25.7871 44.4481L24.1041 44.1951C23.7388 44.1237 23.6279 43.9031 23.6279 43.65V42.6313C23.6279 42.3068 23.8106 42.1252 24.1433 42.0862L30.4643 41.5022C30.8687 41.4633 31.0122 41.7553 31.0513 42.1187L31.4166 45.097H31.5602C32.8387 42.9882 34.5543 41.3206 37.0005 41.3206C37.5485 41.3206 38.2073 41.3919 38.6444 41.5736C38.8988 41.6839 38.9379 41.8981 38.8596 42.3004L38.0899 46.0768C38.0508 46.3299 37.7246 46.5505 37.3593 46.4402C36.8113 46.2585 35.859 46.1482 35.2066 46.1482C33.3801 46.1482 31.808 47.3486 31.808 49.1979V57.1532C31.808 57.8799 32.1016 58.2433 32.4277 58.2822L34.6195 58.5742C34.9457 58.6131 35.0957 58.8662 35.0957 59.1193V60.0991C35.0957 60.4235 34.9131 60.6052 34.5869 60.6052H24.502L24.5151 60.6182Z" fill="white"/>
<path d="M52.603 51.4624C52.603 45.3954 50.4503 44.0847 48.8065 44.0847C45.8449 44.0847 45.01 46.9527 45.01 50.846C45.01 56.913 47.1626 58.2951 48.8065 58.2951C51.768 58.2951 52.603 55.3492 52.603 51.4624ZM39.2695 51.4624C39.2695 45.9016 43.0334 41.1777 48.9826 41.1777C54.9318 41.1777 58.3369 45.3565 58.3369 50.846C58.3369 56.3355 54.573 61.2021 48.6238 61.2021C42.6747 61.2021 39.2695 56.952 39.2695 51.4624Z" fill="white"/>
<path d="M67.3326 60.8387C67.2217 60.8387 67.1108 60.7284 67.039 60.5467L60.8681 45.3954C60.5028 44.5259 60.2092 44.3767 59.8831 44.2664L59.2242 44.0522C58.8981 43.9419 58.748 43.7602 58.748 43.5072V42.5274C58.748 42.2029 58.9307 42.0212 59.2569 42.0212H68.7873C69.1134 42.0212 69.2961 42.2029 69.2961 42.5274V43.5072C69.2961 43.7602 69.1526 43.9808 68.8199 44.0522L67.3587 44.3442C66.8434 44.4545 66.4781 44.6751 66.739 45.4733L69.8049 54.7392C70.0984 55.5763 70.1311 56.011 70.2419 56.595H70.3137C70.4246 56.0824 70.6072 55.3232 70.7899 54.7782L73.9341 45.4733C74.1885 44.6751 73.8232 44.4545 73.3144 44.3442L71.8532 44.0522C71.527 43.9808 71.377 43.7602 71.377 43.5072V42.5274C71.377 42.2029 71.5596 42.0212 71.8858 42.0212H79.9941C80.3203 42.0212 80.503 42.2029 80.503 42.5274V43.5072C80.503 43.7602 80.3529 43.9419 80.0268 44.0522L79.3679 44.2664C79.0418 44.3767 78.7091 44.5194 78.3829 45.3954L72.3163 60.5467C72.2446 60.7284 72.1337 60.8387 72.0228 60.8387H67.3065H67.3326Z" fill="white"/>
<path d="M86.9872 39.2183C84.8672 39.2183 83.9148 37.9854 83.9148 36.5319C83.9148 35.2212 84.7954 33.8066 87.0916 33.8066C89.2117 33.8066 90.1575 34.8968 90.1575 36.4606C90.1575 38.2385 88.879 39.2248 86.9807 39.2248M93.1191 59.8266C93.1582 60.1186 93.0082 60.3328 92.7929 60.4431C92.1341 60.7351 90.712 61.1309 89.6161 61.1309C85.6369 61.1309 84.4301 59.1713 84.4301 56.2254V45.6876C84.4301 45.175 84.2475 44.5585 83.6604 44.4547L82.3492 44.2341C81.9839 44.1627 81.873 43.9421 81.873 43.6891V42.6379C81.873 42.3134 82.0557 42.1317 82.3819 42.0928L89.0681 41.5088C89.3617 41.4699 89.6879 41.6905 89.6879 41.9825V55.9334C89.6879 57.1662 90.1967 57.8605 91.2926 57.8605C91.7296 57.8605 91.9514 57.7892 92.3493 57.6399C92.4211 57.601 92.8973 57.4972 92.969 58.146L93.1125 59.8202L93.1191 59.8266Z" fill="white"/>
<path d="M106.127 47.1734C106.127 45.7199 105.175 44.7725 103.387 44.7725C100.171 44.7725 99.258 48.2245 99.258 50.9888C99.258 53.4934 100.06 57.1661 103.094 57.1661C104.627 57.1661 106.127 56.2252 106.127 54.3694V47.1734ZM107.445 61.0139C107.047 61.0529 106.858 60.8322 106.825 60.4689L106.571 58.1783H106.46C105.253 59.4891 103.466 61.0139 100.837 61.0139C96.6357 61.0139 93.7524 57.3088 93.7524 52.1827C93.7524 45.7523 97.549 41.6839 104.274 41.6839C104.894 41.6839 105.846 41.7552 106.133 41.8331V37.8749C106.133 37.3688 105.951 36.7459 105.364 36.6421L104.046 36.4215C103.681 36.3501 103.57 36.1295 103.57 35.8764V34.8252C103.57 34.5008 103.753 34.3191 104.085 34.2802L110.772 33.6962C111.065 33.6637 111.391 33.9168 111.391 34.2088V56.8481C111.391 57.3542 111.574 57.9707 112.161 58.081L113.766 58.3341C114.131 58.4054 114.242 58.626 114.242 58.8791V59.8978C114.242 60.2288 114.059 60.404 113.727 60.4429L107.445 61.0269V61.0139Z" fill="white"/>
<path d="M123.484 43.9811C120.744 43.9811 119.609 47.2514 119.72 49.4706C119.72 49.834 119.792 49.9053 120.157 49.9443C120.561 49.9767 121.07 50.0157 121.507 50.0157C123.81 50.0157 126.145 49.2175 126.145 46.6739C126.145 45.1491 124.938 43.9876 123.477 43.9876M130.744 58.9572C130.816 59.2492 130.672 59.5412 130.418 59.6839C128.735 60.6637 126.4 61.1374 124.462 61.1374C117.704 61.1374 114.273 57.1403 114.273 51.1447C114.273 45.5124 118.585 41.1909 124.136 41.1909C127.646 41.1909 131.22 43.1505 131.22 47.0373C131.22 51.2161 126.471 52.8513 122.818 52.8513C122.016 52.8513 121.175 52.8513 120.372 52.7799C120.079 52.7409 119.863 52.8188 119.896 53.1822C120.046 55.8685 122.89 57.4323 125.304 57.4323C127.352 57.4323 128.552 56.8548 129.505 56.3811C129.87 56.1995 130.196 56.4201 130.274 56.7056L130.751 58.9572H130.744Z" fill="white"/>
<path d="M133.713 60.6182C133.386 60.6182 133.204 60.4365 133.204 60.1121V59.1322C133.204 58.8792 133.347 58.6586 133.68 58.5872L135.141 58.2952C135.467 58.2238 135.761 57.8994 135.761 57.1662V45.681C135.761 45.1749 135.578 44.5195 134.991 44.4481L133.308 44.1951C132.943 44.1237 132.832 43.9031 132.832 43.65V42.6313C132.832 42.3068 133.015 42.1252 133.347 42.0862L139.668 41.5022C140.066 41.4633 140.216 41.7553 140.255 42.1187L140.621 45.097H140.764C142.043 42.9882 143.758 41.3206 146.205 41.3206C146.753 41.3206 147.411 41.3919 147.848 41.5736C148.103 41.6839 148.142 41.8981 148.07 42.3004L147.301 46.0768C147.268 46.3299 146.935 46.5505 146.57 46.4402C146.022 46.2585 145.07 46.1482 144.417 46.1482C142.591 46.1482 141.019 47.3486 141.019 49.1979V57.1532C141.019 57.8799 141.312 58.2433 141.638 58.2822L143.83 58.5742C144.163 58.6131 144.306 58.8662 144.306 59.1193V60.0991C144.306 60.4235 144.124 60.6052 143.798 60.6052H133.713V60.6182Z" fill="white"/>
<path d="M0.54795 92.0239C0.221789 92.0239 0 91.8422 0 91.4788V90.3887C0 90.0967 0.143511 89.8437 0.508811 89.7723L2.26356 89.4478C2.62886 89.3765 2.9224 89.0131 2.9224 88.215V71.3182C2.9224 70.5201 2.62886 70.1567 2.26356 70.0853L0.508811 69.7609C0.143511 69.6895 0 69.4364 0 69.1444V68.0543C0 67.691 0.215266 67.5093 0.54795 67.5093H12.4202C18.9238 67.5093 21.9898 70.0139 21.9898 74.5236C21.9898 79.6108 17.3844 82.8812 9.93485 82.6606C9.71307 82.6606 9.64131 82.2972 9.64131 82.0052L9.7522 80.1494C9.78482 79.825 10.0066 79.7147 10.3002 79.7147C13.6596 79.7147 16.0732 78.7673 16.0732 74.9519C16.0732 71.8632 14.064 70.4487 11.0308 70.4487H9.24339C9.0216 70.4487 8.7672 70.6693 8.7672 70.9224V88.215C8.7672 89.0131 9.06074 89.4154 9.42604 89.4478L11.9114 89.7723C12.2767 89.8112 12.4267 90.0967 12.4267 90.3887V91.4788C12.4267 91.8422 12.2049 92.0239 11.8788 92.0239H0.54795Z" fill="white"/>
<path d="M33.4638 83.4459C33.4638 83.2252 33.3921 83.1539 33.1703 83.1539C29.0411 83.1539 27.6908 84.6463 27.6908 86.5345C27.6908 88.0269 28.8258 89.0781 30.5023 89.0781C32.4006 89.0781 33.4638 87.5857 33.4638 86.2101V83.4459ZM41.0243 91.2973C41.0569 91.6996 40.9134 91.8034 40.6981 91.8813C40.1501 92.1019 38.3628 92.4263 36.9733 92.4263C35.0033 92.4263 34.1227 91.5179 33.94 89.9217H33.7965C32.8441 91.0507 31.2394 92.4263 28.2061 92.4263C24.8075 92.4263 22.6875 90.285 22.6875 87.1964C22.6875 81.9989 27.619 80.3637 33.1377 80.3637C33.4312 80.3637 33.503 80.0392 33.503 79.8576V79.2022C33.503 76.9506 31.7156 76.2238 29.302 76.2238C27.6973 76.2238 26.3079 76.6586 25.3229 77.2037C24.9576 77.3853 24.5923 77.4178 24.5205 76.9506L24.0835 74.5562C24.0117 74.1929 24.0835 73.9398 24.4488 73.7906C26.2035 73.1027 28.6171 72.7004 30.8415 72.7004C35.4404 72.7004 38.5846 74.4459 38.5846 79.6045V88.1048C38.5846 88.8315 38.8781 89.2339 39.4978 89.2339C39.6805 89.2339 40.0458 89.1949 40.3002 89.1235C40.5937 89.0522 40.7764 89.1625 40.809 89.4869L41.0308 91.3038L41.0243 91.2973Z" fill="white"/>
<path d="M42.8515 92.0237C42.5254 92.0237 42.3362 91.842 42.3362 91.5176V90.5378C42.3362 90.2847 42.4797 90.0641 42.8124 89.9927L44.2736 89.7007C44.5997 89.6293 44.8933 89.2984 44.8933 88.5717V77.0865C44.8933 76.5804 44.7106 75.925 44.1235 75.8537L42.4405 75.6006C42.0752 75.5292 41.9644 75.3086 41.9644 75.0555V74.0368C41.9644 73.7059 42.147 73.5307 42.4732 73.4917L48.7942 72.9078C49.1986 72.8688 49.3421 73.1608 49.3812 73.5242L49.7466 76.5025H49.8901C51.1686 74.3937 52.8842 72.7261 55.3304 72.7261C55.8784 72.7261 56.5372 72.7975 56.9743 72.9791C57.2287 73.0894 57.2678 73.3101 57.1961 73.7059L56.4263 77.4888C56.3872 77.7419 56.061 77.9625 55.6957 77.8522C55.1478 77.6705 54.1954 77.5602 53.5431 77.5602C51.7166 77.5602 50.1445 78.7606 50.1445 80.6099V88.5652C50.1445 89.2919 50.438 89.6553 50.7642 89.6942L52.956 89.9862C53.2821 90.0251 53.4322 90.2782 53.4322 90.5313V91.5111C53.4322 91.8355 53.2495 92.0172 52.9234 92.0172H42.845L42.8515 92.0237Z" fill="white"/>
<path d="M72.9948 90.8947C73.034 91.2581 72.8839 91.4787 72.6687 91.589C71.3901 92.173 69.381 92.4585 67.9915 92.4585C64.3059 92.4585 61.527 90.421 61.527 86.6056V77.0476C61.527 76.7946 61.3052 76.6129 61.1226 76.6129H58.7481C58.5263 76.6129 58.422 76.4312 58.4546 76.1392L58.6764 73.92C58.6764 73.7773 58.8264 73.5956 58.9699 73.5956H61.1617C61.6379 73.5956 61.6379 73.2712 61.6379 72.9402V70.76C61.6379 70.3642 61.7488 70.0333 62.1467 69.923L66.165 68.8718C66.6738 68.729 66.7847 69.0145 66.7847 69.4558V73.1998C66.7847 73.4204 66.9674 73.6021 67.1892 73.6021H71.8663C72.0098 73.6021 72.1599 73.7448 72.1599 73.8941V76.2949C72.1599 76.4052 72.0163 76.6194 71.8663 76.6194H67.3001C66.9739 76.6194 66.7913 76.7621 66.7913 77.0541V85.3727C66.7913 87.3323 67.7763 88.682 69.8572 88.682C70.6204 88.682 71.3575 88.5393 72.0881 88.3576C72.4143 88.2862 72.6752 88.3576 72.7078 88.7599L73.0014 90.9012L72.9948 90.8947Z" fill="white"/>
<path d="M87.568 92.0237C87.2419 92.0237 87.0592 91.842 87.0592 91.5176V90.5378C87.0592 90.2847 87.2027 90.0641 87.5354 89.9927L88.9966 89.7007C89.3228 89.6293 89.6163 89.2984 89.6163 88.5717V80.2855C89.6163 77.6316 88.0116 76.4701 86.1068 76.4701C84.2021 76.4701 82.5647 77.7419 82.5647 79.7794V88.5717C82.5647 89.2984 82.8583 89.6228 83.1844 89.7007L84.6456 89.9927C84.9718 90.0641 85.1218 90.2847 85.1218 90.5378V91.5176C85.1218 91.842 84.9392 92.0237 84.613 92.0237H75.2652C74.9391 92.0237 74.7564 91.842 74.7564 91.5176V90.5378C74.7564 90.2847 74.8999 90.0641 75.2326 89.9927L76.6938 89.7007C77.02 89.6293 77.3135 89.2984 77.3135 88.5717V77.0865C77.3135 76.5804 77.1309 75.9575 76.5438 75.8537L74.9391 75.6006C74.5738 75.5292 74.4629 75.3086 74.4629 75.0555V74.0368C74.4629 73.7059 74.6455 73.5307 74.9782 73.4917L81.2992 72.9078C81.7037 72.8688 81.8863 73.0894 81.9189 73.4528L82.1407 75.5227H82.2908C83.7911 73.9265 86.0873 72.7261 88.6444 72.7261C91.7886 72.7261 94.8871 74.504 94.8871 78.4686V88.5717C94.8871 89.2984 95.1806 89.6228 95.5068 89.7007L96.968 89.9927C97.2941 90.0641 97.4442 90.2847 97.4442 90.5378V91.5176C97.4442 91.842 97.2615 92.0237 96.9354 92.0237H87.5811H87.568Z" fill="white"/>
<path d="M106.641 75.38C103.901 75.38 102.766 78.6504 102.877 80.8695C102.877 81.2329 102.949 81.3043 103.314 81.3432C103.719 81.3821 104.227 81.4146 104.664 81.4146C106.967 81.4146 109.302 80.6165 109.302 78.0729C109.302 76.548 108.096 75.3865 106.634 75.3865M113.901 90.3561C113.973 90.6481 113.83 90.9401 113.575 91.0829C111.892 92.0627 109.557 92.5363 107.619 92.5363C100.861 92.5363 97.4302 88.5393 97.4302 82.5436C97.4302 76.9114 101.742 72.5898 107.293 72.5898C110.803 72.5898 114.377 74.5495 114.377 78.4362C114.377 82.615 109.629 84.2502 105.976 84.2502C105.173 84.2502 104.332 84.2502 103.529 84.1788C103.236 84.1399 103.021 84.2177 103.053 84.5811C103.203 87.2675 106.047 88.8312 108.461 88.8312C110.509 88.8312 111.709 88.2473 112.662 87.7801C113.027 87.5984 113.353 87.819 113.432 88.111L113.908 90.3626L113.901 90.3561Z" fill="white"/>
<path d="M117.457 92.0237C117.13 92.0237 116.948 91.842 116.948 91.5176V90.5378C116.948 90.2847 117.091 90.0641 117.424 89.9927L118.885 89.7007C119.211 89.6293 119.505 89.2984 119.505 88.5717V77.0865C119.505 76.5804 119.322 75.925 118.742 75.8537L117.059 75.6006C116.693 75.5292 116.583 75.3086 116.583 75.0555V74.0368C116.583 73.7059 116.765 73.5307 117.091 73.4917L123.412 72.9078C123.817 72.8688 123.96 73.1608 123.999 73.5242L124.365 76.5025H124.508C125.787 74.3937 127.502 72.7261 129.949 72.7261C130.497 72.7261 131.155 72.7975 131.592 72.9791C131.847 73.0894 131.886 73.3101 131.814 73.7059L131.044 77.4888C131.005 77.7419 130.679 77.9625 130.314 77.8522C129.766 77.6705 128.814 77.5602 128.161 77.5602C126.335 77.5602 124.763 78.7606 124.763 80.6099V88.5652C124.763 89.2919 125.056 89.6553 125.382 89.6942L127.574 89.9862C127.9 90.0251 128.05 90.2782 128.05 90.5313V91.5111C128.05 91.8355 127.868 92.0172 127.542 92.0172H117.457V92.0237Z" fill="white"/>
<path d="M137.255 83.809C134.88 82.9006 133.054 81.5899 133.054 78.6829C133.054 74.5755 137.072 72.6873 140.653 72.6873C142.519 72.6873 144.124 72.9793 145.22 73.3426C145.513 73.4529 145.768 73.5632 145.768 73.998V77.9561C145.768 78.2806 145.585 78.5012 145.187 78.5012H144.091C143.798 78.5012 143.582 78.3584 143.504 77.9951L143.25 76.8336C143.067 75.9965 142.193 75.5618 140.764 75.5618C139.486 75.5618 138.175 76.2172 138.175 77.5214C138.175 78.6829 138.977 79.1566 140.295 79.6627L142.597 80.5322C144.861 81.4082 146.981 82.7513 146.981 85.84C146.981 90.2718 142.637 92.4196 138.801 92.4196C136.831 92.4196 134.456 91.9849 133.543 91.6929C133.25 91.5826 132.956 91.4009 132.956 91.0375V86.6057C132.956 86.2812 133.067 86.0606 133.465 86.0606H134.783C135.076 86.0606 135.291 86.2423 135.37 86.5668L135.696 87.9099C135.95 88.9287 136.974 89.4348 138.768 89.4348C140.562 89.4348 141.762 88.4161 141.762 87.0729C141.762 85.8011 140.849 85.1846 139.531 84.672L137.268 83.796L137.255 83.809Z" fill="white"/>
</svg>
