<svg width="161" height="72" viewBox="0 0 161 72" fill="none" xmlns="http://www.w3.org/2000/svg">
<mask id="mask0_6_2125" style="mask-type:luminance" maskUnits="userSpaceOnUse" x="0" y="0" width="161" height="72">
<path d="M160.187 0H0V71.41H160.187V0Z" fill="white"/>
</mask>
<g mask="url(#mask0_6_2125)">
<path d="M116.74 6.76611C102.399 23.121 120.404 35.2913 125.071 49.0693C126.546 46.7572 127.728 44.0574 128.858 41.1543C122.182 30.3551 111.231 21.1304 116.74 6.76611Z" fill="#005499"/>
</g>
<mask id="mask1_6_2125" style="mask-type:luminance" maskUnits="userSpaceOnUse" x="0" y="0" width="161" height="72">
<path d="M160.172 0H0V71.41H160.172V0Z" fill="white"/>
</mask>
<g mask="url(#mask1_6_2125)">
<path d="M121.694 67.5518C124.493 66.6109 132.886 60.7243 133.463 53.6746C131.59 55.7077 128.777 57.7976 126.125 59.0647C124.938 62.8378 121.883 67.1405 121.694 67.5566" fill="#005499"/>
<path d="M156.64 18.9647C156.64 18.9647 156.659 18.9695 156.673 18.9742C156.65 18.9695 156.626 18.9647 156.602 18.96C156.617 18.96 156.631 18.96 156.64 18.9647C148.574 16.7756 140.082 20.9648 135.694 28.3975C138.181 29.9483 140.924 31.0595 143.817 31.7072C147.151 23.6882 154.267 20.4447 160.182 19.7402C160.267 19.7402 157.728 19.0593 156.636 18.9647M156.617 20.1515C156.815 20.0995 157.004 20.0569 157.184 20.0144C157.023 20.0617 156.834 20.109 156.617 20.1515Z" fill="#00BBEA"/>
</g>
<mask id="mask2_6_2125" style="mask-type:luminance" maskUnits="userSpaceOnUse" x="0" y="0" width="161" height="72">
<path d="M160.187 0H0V71.41H160.187V0Z" fill="white"/>
</mask>
<g mask="url(#mask2_6_2125)">
<path d="M129.808 42.7523C126.602 50.7194 122.579 57.4145 112.711 58.2467C115.728 59.2869 119.657 59.6509 123.075 58.6627C123.075 58.6675 123.075 58.6722 123.075 58.6769C132.47 55.7785 137.359 46.0006 140.612 39.2015C137.629 38.984 134.626 38.2464 131.941 37.0974C131.231 39.0265 130.541 40.9225 129.808 42.7476" fill="#00BBEA"/>
<path d="M149.87 33.835C132.697 35.244 115.108 13.1066 125.747 0C125.657 0.0567384 125.567 0.118205 125.477 0.174943C125.534 0.127661 125.591 0.070923 125.647 0.023641C110.186 7.44219 119.572 37.5608 141.293 37.7736C145.771 38.0384 150.759 36.809 153.236 33.6553C152.092 33.7735 150.967 33.835 149.87 33.835Z" fill="#00B095"/>
<path d="M0.397169 44.1708C0.160759 44.1708 0 44.0384 0 43.7736V42.9793C0 42.7665 0.10402 42.5821 0.3688 42.5301L1.64069 42.2937C1.90546 42.2417 2.11823 41.9769 2.11823 41.3953V29.0831C2.11823 28.5015 1.90546 28.2367 1.64069 28.1847L0.3688 27.9483C0.10402 27.8963 0 27.7119 0 27.4991V26.7048C0 26.44 0.156031 26.3076 0.397169 26.3076H9.00249C13.7165 26.3076 15.9388 28.1374 15.9388 31.4188C15.9388 35.1257 12.6006 37.5087 7.20105 37.348C7.04029 37.348 6.98828 37.0832 6.98828 36.8704L7.06866 35.5182C7.0923 35.2817 7.25306 35.2014 7.46583 35.2014C9.90085 35.2014 11.6503 34.511 11.6503 31.7309C11.6503 29.4802 10.194 28.4495 7.99538 28.4495H6.69986C6.5391 28.4495 6.3547 28.6103 6.3547 28.7947V41.4C6.3547 41.9816 6.56747 42.2747 6.83225 42.2984L8.63369 42.5348C8.89847 42.5632 9.00722 42.7712 9.00722 42.984V43.7783C9.00722 44.0431 8.84646 44.1755 8.61005 44.1755H0.397169V44.1708Z" fill="#005499"/>
<path d="M17.769 44.1708C17.5326 44.1708 17.3955 44.0384 17.3955 43.802V43.088C17.3955 42.9036 17.5042 42.7429 17.7406 42.6909L18.7998 42.4781C19.0362 42.4261 19.2489 42.1897 19.2489 41.6554V33.2865C19.2489 32.9177 19.1165 32.4401 18.691 32.3881L17.4711 32.2037C17.2064 32.1517 17.126 31.991 17.126 31.8066V31.0642C17.126 30.8278 17.2584 30.6954 17.4995 30.6671L22.0811 30.2415C22.3743 30.2132 22.4783 30.4259 22.5067 30.6907L22.7714 32.8609H22.8755C23.8022 31.3243 25.0457 30.1091 26.8188 30.1091C27.216 30.1091 27.6935 30.1611 28.0103 30.2935C28.1947 30.3739 28.2231 30.5299 28.1663 30.8231L27.6084 33.5749C27.58 33.7593 27.3436 33.9201 27.0788 33.8397C26.6817 33.7073 25.9914 33.6269 25.5185 33.6269C24.1946 33.6269 23.0551 34.5016 23.0551 35.8492V41.6459C23.0551 42.1755 23.2679 42.4403 23.5043 42.4686L25.093 42.6814C25.3294 42.7098 25.4382 42.8942 25.4382 43.0786V43.7925C25.4382 44.029 25.3058 44.1613 25.0694 44.1613H17.7596L17.769 44.1708Z" fill="#005499"/>
<path d="M38.1283 37.4993C38.1283 33.0785 36.568 32.1234 35.3765 32.1234C33.2299 32.1234 32.6247 34.2132 32.6247 37.0501C32.6247 41.471 34.185 42.4781 35.3765 42.4781C37.5231 42.4781 38.1283 40.3315 38.1283 37.4993ZM28.4639 37.4993C28.4639 33.4473 31.192 30.0051 35.5042 30.0051C39.8163 30.0051 42.2844 33.0501 42.2844 37.0501C42.2844 41.0502 39.5562 44.5964 35.2441 44.5964C30.932 44.5964 28.4639 41.4994 28.4639 37.4993Z" fill="#005499"/>
<path d="M48.8043 44.3317C48.724 44.3317 48.6436 44.2513 48.5916 44.1189L44.1187 33.0785C43.8539 32.445 43.6412 32.3362 43.4047 32.2558L42.9272 32.0998C42.6908 32.0194 42.582 31.887 42.582 31.7026V30.9887C42.582 30.7523 42.7144 30.6199 42.9508 30.6199H49.8587C50.0951 30.6199 50.2275 30.7523 50.2275 30.9887V31.7026C50.2275 31.887 50.1235 32.0478 49.8824 32.0998L48.8233 32.3126C48.4497 32.3929 48.1849 32.5537 48.3741 33.1353L50.5963 39.8871C50.8091 40.4971 50.8327 40.8139 50.9131 41.2394H50.9651C51.0455 40.8659 51.1779 40.3127 51.3103 39.9155L53.5893 33.1353C53.7737 32.5537 53.5089 32.3929 53.1401 32.3126L52.081 32.0998C51.8446 32.0478 51.7358 31.887 51.7358 31.7026V30.9887C51.7358 30.7523 51.8682 30.6199 52.1046 30.6199H57.9818C58.2182 30.6199 58.3506 30.7523 58.3506 30.9887V31.7026C58.3506 31.887 58.2418 32.0194 58.0054 32.0998L57.5279 32.2558C57.2915 32.3362 57.0503 32.4402 56.8139 33.0785L52.4167 44.1189C52.3647 44.2513 52.2843 44.3317 52.2039 44.3317H48.7854H48.8043Z" fill="#005499"/>
<path d="M63.0507 28.5774C61.514 28.5774 60.8237 27.679 60.8237 26.6199C60.8237 25.6648 61.462 24.634 63.1263 24.634C64.663 24.634 65.3486 25.4284 65.3486 26.5679C65.3486 27.8634 64.4218 28.5821 63.0459 28.5821M67.4952 43.5941C67.5235 43.8069 67.4148 43.9629 67.2588 44.0433C66.7812 44.2561 65.7505 44.5445 64.9561 44.5445C62.0719 44.5445 61.1972 43.1166 61.1972 40.97V33.2914C61.1972 32.9178 61.0648 32.4687 60.6393 32.393L59.6889 32.2323C59.4241 32.1802 59.3438 32.0195 59.3438 31.8351V31.0691C59.3438 30.8327 59.4761 30.7003 59.7125 30.6719L64.5589 30.2464C64.7717 30.218 65.0081 30.3788 65.0081 30.5916V40.7572C65.0081 41.6556 65.3769 42.1615 66.1713 42.1615C66.4881 42.1615 66.6488 42.1095 66.9372 42.0007C66.9892 41.9723 67.3344 41.8967 67.3864 42.3695L67.4904 43.5894L67.4952 43.5941Z" fill="#005499"/>
<path d="M76.9235 34.374C76.9235 33.3149 76.2332 32.6246 74.9377 32.6246C72.6067 32.6246 71.9447 35.14 71.9447 37.1542C71.9447 38.9793 72.5263 41.6555 74.7249 41.6555C75.836 41.6555 76.9235 40.9699 76.9235 39.6176V34.374ZM77.8786 44.4593C77.5902 44.4876 77.4531 44.3269 77.4294 44.0621L77.245 42.3931H77.1646C76.2899 43.3482 74.9944 44.4593 73.0889 44.4593C70.044 44.4593 67.9541 41.7595 67.9541 38.0242C67.9541 33.3386 70.7059 30.374 75.5807 30.374C76.0299 30.374 76.7202 30.426 76.9282 30.4827V27.5985C76.9282 27.2297 76.7958 26.7758 76.3703 26.7002L75.4152 26.5394C75.1504 26.4874 75.07 26.3266 75.07 26.1422V25.3763C75.07 25.1399 75.2024 25.0075 75.4436 24.9791L80.29 24.5536C80.5027 24.5299 80.7391 24.7143 80.7391 24.9271V41.4238C80.7391 41.7926 80.8715 42.2418 81.2971 42.3221L82.4602 42.5065C82.725 42.5585 82.8054 42.7193 82.8054 42.9037V43.646C82.8054 43.8872 82.673 44.0148 82.4318 44.0432L77.8786 44.4687V44.4593Z" fill="#005499"/>
<path d="M89.5043 32.0478C87.5185 32.0478 86.6958 34.4308 86.7762 36.0478C86.7762 36.3126 86.8282 36.3646 87.093 36.393C87.3861 36.4166 87.7549 36.445 88.0717 36.445C89.7408 36.445 91.4335 35.8634 91.4335 34.01C91.4335 32.8989 90.5587 32.0525 89.4996 32.0525M94.7668 42.9605C94.8188 43.1732 94.7148 43.386 94.5304 43.49C93.3105 44.204 91.6179 44.5491 90.2136 44.5491C85.3152 44.5491 82.8281 41.6366 82.8281 37.2677C82.8281 33.1636 85.9535 30.0146 89.9772 30.0146C92.5209 30.0146 95.112 31.4426 95.112 34.2748C95.112 37.3197 91.6699 38.5112 89.0221 38.5112C88.4405 38.5112 87.8306 38.5112 87.249 38.4592C87.0362 38.4308 86.8802 38.4876 86.9038 38.7524C87.0126 40.7098 89.0741 41.8493 90.8235 41.8493C92.3082 41.8493 93.1782 41.4285 93.8685 41.0834C94.1333 40.951 94.3697 41.1117 94.4264 41.3198L94.7716 42.9605H94.7668Z" fill="#005499"/>
<path d="M96.9186 44.1708C96.6822 44.1708 96.5498 44.0384 96.5498 43.802V43.088C96.5498 42.9036 96.6538 42.7429 96.8949 42.6909L97.9541 42.4781C98.1905 42.4261 98.4032 42.1897 98.4032 41.6554V33.2865C98.4032 32.9177 98.2708 32.4401 97.8453 32.3881L96.6254 32.2037C96.3607 32.1517 96.2803 31.991 96.2803 31.8066V31.0642C96.2803 30.8278 96.4127 30.6954 96.6538 30.6671L101.235 30.2415C101.524 30.2132 101.633 30.4259 101.661 30.6907L101.926 32.8609H102.03C102.956 31.3243 104.2 30.1091 105.973 30.1091C106.37 30.1091 106.848 30.1611 107.165 30.2935C107.349 30.3739 107.377 30.5299 107.325 30.8231L106.767 33.5749C106.744 33.7593 106.503 33.9201 106.238 33.8397C105.841 33.7073 105.15 33.6269 104.678 33.6269C103.354 33.6269 102.214 34.5016 102.214 35.8492V41.6459C102.214 42.1755 102.427 42.4403 102.663 42.4686L104.252 42.6814C104.493 42.7098 104.597 42.8942 104.597 43.0786V43.7925C104.597 44.029 104.465 44.1613 104.228 44.1613H96.9186V44.1708Z" fill="#005499"/>
<path d="M0.397169 67.0553C0.160759 67.0553 0 66.9229 0 66.6581V65.8638C0 65.651 0.10402 65.4666 0.3688 65.4146L1.64069 65.1782C1.90546 65.1262 2.11823 64.8614 2.11823 64.2798V51.9676C2.11823 51.386 1.90546 51.1212 1.64069 51.0692L0.3688 50.8328C0.10402 50.7808 0 50.5964 0 50.3836V49.5893C0 49.3245 0.156031 49.1921 0.397169 49.1921H9.00249C13.7165 49.1921 15.9388 51.0172 15.9388 54.3033C15.9388 58.0102 12.6006 60.3932 7.20105 60.2325C7.04029 60.2325 6.98828 59.9677 6.98828 59.7549L7.06866 58.4027C7.0923 58.1663 7.25306 58.0859 7.46583 58.0859C9.90085 58.0859 11.6503 57.3956 11.6503 54.6154C11.6503 52.3648 10.194 51.334 7.99538 51.334H6.69986C6.5391 51.334 6.3547 51.4948 6.3547 51.6792V64.2798C6.3547 64.8614 6.56747 65.1545 6.83225 65.1782L8.63369 65.4146C8.89847 65.443 9.00722 65.651 9.00722 65.8638V66.6581C9.00722 66.9229 8.84646 67.0553 8.61005 67.0553H0.397169Z" fill="#005499"/>
<path d="M24.2553 60.8048C24.2553 60.644 24.2033 60.592 24.0425 60.592C21.0496 60.592 20.0709 61.6795 20.0709 63.0554C20.0709 64.1429 20.8936 64.9088 22.1087 64.9088C23.4846 64.9088 24.2553 63.8213 24.2553 62.819V60.8048ZM29.7353 66.5259C29.7589 66.819 29.6549 66.8947 29.4989 66.9514C29.1017 67.1122 27.8062 67.3486 26.7991 67.3486C25.3712 67.3486 24.7329 66.6866 24.6005 65.5235H24.4965C23.8061 66.3462 22.643 67.3486 20.4444 67.3486C17.981 67.3486 16.4443 65.7883 16.4443 63.5377C16.4443 59.7504 20.0189 58.5589 24.0189 58.5589C24.2317 58.5589 24.2837 58.3224 24.2837 58.1901V57.7125C24.2837 56.0718 22.9882 55.5423 21.2387 55.5423C20.0756 55.5423 19.0685 55.8591 18.3545 56.2562C18.0897 56.3886 17.825 56.4123 17.773 56.0718L17.4562 54.3271C17.4042 54.0623 17.4562 53.8779 17.7209 53.7692C18.9928 53.268 20.7423 52.9749 22.3546 52.9749C25.688 52.9749 27.967 54.2467 27.967 58.0057V64.1996C27.967 64.7292 28.1797 65.0223 28.6289 65.0223C28.7613 65.0223 29.0261 64.9939 29.2105 64.9419C29.4232 64.8899 29.5556 64.9703 29.5793 65.2067L29.74 66.5306L29.7353 66.5259Z" fill="#005499"/>
<path d="M31.06 67.0553C30.8236 67.0553 30.6865 66.9229 30.6865 66.6865V65.9726C30.6865 65.7882 30.7905 65.6274 31.0317 65.5754L32.0908 65.3626C32.3272 65.3106 32.54 65.0695 32.54 64.5399V56.171C32.54 55.8022 32.4076 55.3247 31.982 55.2726L30.7621 55.0882C30.4974 55.0362 30.417 54.8755 30.417 54.6911V53.9487C30.417 53.7076 30.5494 53.5799 30.7858 53.5516L35.3674 53.126C35.6606 53.0977 35.7646 53.3104 35.793 53.5752L36.0577 55.7455H36.1618C37.0885 54.2088 38.332 52.9937 40.1051 52.9937C40.5022 52.9937 40.9798 53.0457 41.2966 53.1781C41.481 53.2584 41.5093 53.4192 41.4573 53.7076L40.8994 56.4641C40.871 56.6485 40.6346 56.8093 40.3699 56.7289C39.9727 56.5965 39.2824 56.5162 38.8095 56.5162C37.4857 56.5162 36.3462 57.3909 36.3462 58.7384V64.5352C36.3462 65.0647 36.5589 65.3295 36.7953 65.3579L38.384 65.5707C38.6204 65.599 38.7292 65.7834 38.7292 65.9678V66.6818C38.7292 66.9182 38.5968 67.0506 38.3604 67.0506H31.0553L31.06 67.0553Z" fill="#005499"/>
<path d="M52.9086 66.2327C52.937 66.4975 52.8283 66.6583 52.6722 66.7386C51.7455 67.1642 50.2892 67.3722 49.2821 67.3722C46.6107 67.3722 44.5965 65.8876 44.5965 63.1074V56.1427C44.5965 55.9583 44.4357 55.826 44.3033 55.826H42.5822C42.4215 55.826 42.3458 55.6936 42.3695 55.4808L42.5302 53.8637C42.5302 53.7597 42.639 53.6273 42.743 53.6273H44.3317C44.6768 53.6273 44.6768 53.3909 44.6768 53.1498V51.5611C44.6768 51.2727 44.7572 51.0316 45.0456 50.9512L47.9582 50.1852C48.327 50.0812 48.4074 50.2892 48.4074 50.6107V53.3389C48.4074 53.4997 48.5398 53.6321 48.7005 53.6321H52.0907C52.1947 53.6321 52.3034 53.7361 52.3034 53.8448V55.5943C52.3034 55.6747 52.1994 55.8307 52.0907 55.8307H48.7809C48.5445 55.8307 48.4121 55.9347 48.4121 56.1475V62.209C48.4121 63.6369 49.1261 64.6204 50.6344 64.6204C51.1876 64.6204 51.7219 64.5164 52.2514 64.384C52.4878 64.332 52.677 64.384 52.7006 64.6771L52.9134 66.2374L52.9086 66.2327Z" fill="#005499"/>
<path d="M63.4716 67.0553C63.2352 67.0553 63.1028 66.9229 63.1028 66.6865V65.9726C63.1028 65.7882 63.2068 65.6274 63.448 65.5754L64.5071 65.3626C64.7435 65.3106 64.9563 65.0695 64.9563 64.5399V58.502C64.9563 56.5682 63.7931 55.7218 62.4125 55.7218C61.0319 55.7218 59.8451 56.6485 59.8451 58.1332V64.5399C59.8451 65.0695 60.0578 65.3059 60.2943 65.3626L61.3534 65.5754C61.5898 65.6274 61.6985 65.7882 61.6985 65.9726V66.6865C61.6985 66.9229 61.5661 67.0553 61.3297 67.0553H54.5542C54.3178 67.0553 54.1854 66.9229 54.1854 66.6865V65.9726C54.1854 65.7882 54.2894 65.6274 54.5306 65.5754L55.5897 65.3626C55.8261 65.3106 56.0389 65.0695 56.0389 64.5399V56.171C56.0389 55.8022 55.9065 55.3483 55.4809 55.2726L54.3178 55.0882C54.053 55.0362 53.9727 54.8755 53.9727 54.6911V53.9487C53.9727 53.7076 54.105 53.5799 54.3462 53.5516L58.9278 53.126C59.221 53.0977 59.3533 53.2584 59.377 53.5232L59.5377 55.0315H59.6465C60.734 53.8684 62.3983 52.9937 64.2518 52.9937C66.5308 52.9937 68.7767 54.2892 68.7767 57.1781V64.5399C68.7767 65.0695 68.9894 65.3059 69.2258 65.3626L70.2849 65.5754C70.5214 65.6274 70.6301 65.7882 70.6301 65.9726V66.6865C70.6301 66.9229 70.4977 67.0553 70.2613 67.0553H63.4811H63.4716Z" fill="#005499"/>
<path d="M77.2963 54.9274C75.3105 54.9274 74.4878 57.3104 74.5682 58.9275C74.5682 59.1922 74.6202 59.2443 74.885 59.2726C75.1781 59.301 75.5469 59.3246 75.8637 59.3246C77.5327 59.3246 79.2254 58.7431 79.2254 56.8896C79.2254 55.7785 78.3507 54.9321 77.2916 54.9321M82.5588 65.8401C82.6108 66.0529 82.5068 66.2656 82.3224 66.3697C81.1025 67.0836 79.4098 67.4288 78.0056 67.4288C73.1071 67.4288 70.6201 64.5162 70.6201 60.1473C70.6201 56.0433 73.7455 52.8943 77.7692 52.8943C80.3129 52.8943 82.904 54.3222 82.904 57.1544C82.904 60.1994 79.4619 61.3909 76.8141 61.3909C76.2325 61.3909 75.6226 61.3909 75.041 61.3389C74.8282 61.3105 74.6722 61.3672 74.6958 61.632C74.8046 63.5895 76.8661 64.729 78.6155 64.729C80.1002 64.729 80.9701 64.3034 81.6605 63.963C81.9252 63.8306 82.1617 63.9914 82.2184 64.2041L82.5635 65.8448L82.5588 65.8401Z" fill="#005499"/>
<path d="M85.1355 67.0553C84.8991 67.0553 84.7667 66.9229 84.7667 66.6865V65.9726C84.7667 65.7882 84.8707 65.6274 85.1119 65.5754L86.171 65.3626C86.4074 65.3106 86.6202 65.0695 86.6202 64.5399V56.171C86.6202 55.8022 86.4878 55.3247 86.067 55.2726L84.8471 55.0882C84.5823 55.0362 84.502 54.8755 84.502 54.6911V53.9487C84.502 53.7076 84.6343 53.5799 84.8708 53.5516L89.4524 53.126C89.7455 53.0977 89.8495 53.3104 89.8779 53.5752L90.1427 55.7455H90.2467C91.1734 54.2088 92.417 52.9937 94.19 52.9937C94.5872 52.9937 95.0647 53.0457 95.3815 53.1781C95.5659 53.2584 95.5943 53.4192 95.5423 53.7076L94.9844 56.4641C94.956 56.6485 94.7196 56.8093 94.4548 56.7289C94.0576 56.5965 93.3673 56.5162 92.8945 56.5162C91.5706 56.5162 90.4311 57.3909 90.4311 58.7384V64.5352C90.4311 65.0647 90.6439 65.3295 90.8803 65.3579L92.469 65.5707C92.7054 65.599 92.8141 65.7834 92.8141 65.9678V66.6818C92.8141 66.9182 92.6817 67.0506 92.4453 67.0506H85.1355V67.0553Z" fill="#005499"/>
<path d="M99.486 61.0695C97.7649 60.4075 96.441 59.4524 96.441 57.3342C96.441 54.3412 99.3536 52.9653 101.949 52.9653C103.302 52.9653 104.465 53.1781 105.259 53.4429C105.472 53.5233 105.656 53.6036 105.656 53.9204V56.8046C105.656 57.041 105.524 57.2018 105.235 57.2018H104.441C104.228 57.2018 104.072 57.0978 104.016 56.833L103.831 55.9867C103.699 55.3767 103.065 55.0599 102.03 55.0599C101.103 55.0599 100.153 55.5375 100.153 56.4878C100.153 57.3342 100.734 57.6793 101.689 58.0481L103.358 58.6817C104.999 59.32 106.536 60.2988 106.536 62.5494C106.536 65.7788 103.387 67.3438 100.607 67.3438C99.1787 67.3438 97.4576 67.027 96.7957 66.8142C96.5829 66.7339 96.3701 66.6015 96.3701 66.3367V63.1073C96.3701 62.8709 96.4505 62.7102 96.7389 62.7102H97.694C97.9068 62.7102 98.0628 62.8425 98.1196 63.079L98.356 64.0577C98.5404 64.8 99.2827 65.1688 100.583 65.1688C101.883 65.1688 102.753 64.4265 102.753 63.4478C102.753 62.521 102.091 62.0719 101.136 61.6983L99.4955 61.06L99.486 61.0695Z" fill="#005499"/>
</g>
</svg>
